<?xml version="1.0" encoding="UTF-8"?>
<svg width="60px" height="60px" viewBox="0 0 24 24" stroke-width="1.5" fill="none" xmlns="http://www.w3.org/2000/svg" color="#4ecdc4">
  <path d="M12 22C6.477 22 2 17.523 2 12S6.477 2 12 2s10 4.477 10 10-4.477 10-10 10z" stroke="#4ecdc4" stroke-width="1.5" stroke-linecap="round" stroke-linejoin="round"></path>
  <path d="M15 8.5c-.685-.685-1.891-1.161-3-1.191M9 15c.644.86 1.843 1.35 3 1.391m0-9.082c-1.32-.036-2.5.561-2.5 2.191 0 3 5.5 1.5 5.5 4.5 0 1.711-1.464 2.446-3 2.391m0-9.082V5.5m0 10.891V18.5" stroke="#4ecdc4" stroke-width="1.5" stroke-linecap="round" stroke-linejoin="round"></path>
</svg>