<?xml version="1.0" encoding="UTF-8"?>
<svg width="60px" height="60px" viewBox="0 0 24 24" stroke-width="1.5" fill="none" xmlns="http://www.w3.org/2000/svg" color="#4ecdc4">
  <path d="M3 19V5a2 2 0 012-2h14a2 2 0 012 2v14a2 2 0 01-2 2H5a2 2 0 01-2-2z" stroke="#4ecdc4" stroke-width="1.5"></path>
  <path d="M9 17h6M16 13.01l.01-.011M16 7.01l.01-.011" stroke="#4ecdc4" stroke-width="1.5" stroke-linecap="round" stroke-linejoin="round"></path>
  <path d="M8 13H7v-2h1v2zM12 13h-1v-2h1v2zM8 9H7V7h1v2zM12 9h-1V7h1v2z" fill="#4ecdc4" stroke="#4ecdc4" stroke-width="1.5" stroke-linecap="round" stroke-linejoin="round"></path>
</svg>